PathFileType	4	(X/Y/Z)	C:/Users/beibeiliu/ov580/test_trc/User2\sequence.4_training_dense_left.trc
DataRate	CameraRate	NumFrames	NumMarkers	Units	OrigDataRate	OrigDataStartFrame	OrigNumFrames
120	120	19	19	mm	120	149	296
Frame#	Time	ThumbCMC			ThumbMCP			ThumbIP			ThumbTip			IndexMCP			IndexPIP			IndexTip			MiddleMCP			MiddlePIP			MiddleTip			RingMCP			RingPIP			RingTip			PinkyMCP			PinkyPIP			PinkyTip			BackHand1			BackHand2			BackHand3	
		X0	Y0	Z0	X1	Y1	Z1	X2	Y2	Z2	X3	Y3	Z3	X4	Y4	Z4	X5	Y5	Z5	X6	Y6	Z6	X7	Y7	Z7	X8	Y8	Z8	X9	Y9	Z9	X10	Y10	Z10	X11	Y11	Z11	X12	Y12	Z12	X13	Y13	Z13	X14	Y14	Z14	X15	Y15	Z15	X16	Y16	Z16	X17	Y17	Z17	X18	Y18	Z18	
148	1.23333	-232.535	-4.61495	87.7322	-222.982	-6.36839	47.299	-214.828	-15.645	15.7808	-202.806	-34.9294	-4.84924	-274.149	-65.0198	53.2971	-287.76	-76.6038	30.9033	-299.776	-89.5284	6.27901	-250.639	-81.3246	38.67	-238.326	-73.4156	3.80686	-210.721	-43.7814	3.46893	-223.044	-89.9623	36.5639	-214.545	-75.4879	9.28858	-200.212	-41.0171	13.388	-203.867	-91.617	46.9957	-198.567	-75.9374	16.3215	-185.961	-45.1804	17.0416	-217.226	-75.4543	97.7859	-208.043	-55.4598	130.675	-240.529	-44.1664	111.249	
149	1.24167	-230.923	-9.31217	89.1298	-223.441	-6.77329	48.6476	-216.696	-22.8916	13.2764	-205.123	-47.0622	-0.755537	-278.009	-70.7069	55.3924	-288.899	-81.8911	37.9634	-305.267	-93.5728	12.0084	-252.527	-85.0764	45.563	-241.027	-82.9395	9.19354	-214.682	-47.2063	5.65405	-229.241	-92.6823	42.0973	-216.226	-81.7268	13.1977	-199.563	-52.6974	14.3013	-206.071	-95.5154	53.9511	-199.336	-87.1879	22.3622	-187.538	-54.7768	20.6455	-217.064	-78.4964	103.52	-204.092	-59.5737	131.67	-241.809	-43.6853	115.12	
150	1.25	-230.547	-13.431	88.2796	-222.119	-15.6493	47.8574	-216.036	-26.0028	17.2851	-205.791	-50.6157	0.384526	-277.194	-70.6705	61.7778	-296.592	-81.1999	40.6838	-306.269	-97.0982	20.0233	-252.824	-91.2313	47.1678	-239.618	-85.73	12.1333	-217.097	-58.4024	7.30367	-233.065	-95.9024	44.0849	-218.178	-86.1145	17.2252	-201.113	-56.048	18.7206	-207.976	-102.789	56.6974	-201.48	-89.1792	25.5515	-187.972	-58.5398	22.5282	-218.783	-76.1606	109.171	-206.304	-59.2511	133.11	-241.658	-44.7243	118.012	
151	1.25833	-230.749	-11.5017	86.341	-219.767	-20.1902	51.4254	-215.033	-34.112	15.7186	-204.359	-58.8783	7.29039	-277.966	-69.2916	64.4681	-295.742	-80.8615	44.1043	-309.159	-95.8347	21.6269	-253.733	-91.5345	52.3466	-243.189	-90.3217	14.8211	-215.387	-60.6278	9.77355	-232.085	-100.2	46.288	-218.713	-89.066	20.0205	-200.548	-62.1812	19.5801	-212.292	-103.251	57.9865	-201.215	-93.9315	28.3286	-187.82	-66.7029	25.5239	-221.315	-82.2958	110.374	-207.02	-62.5081	135.706	-240.175	-48.8799	116.203	
152	1.26667	-226.106	-13.2173	86.7086	-214.429	-18.2691	52.2533	-210.199	-34.2018	18.6947	-202.414	-60.6216	6.8597	-279.872	-66.6626	61.7377	-297.802	-76.6631	42.0097	-309.777	-90.8078	23.5682	-255.726	-92.4129	51.4929	-244.754	-90.878	15.7482	-213.251	-67.0957	11.1781	-233.405	-100.115	51.0915	-218.394	-94.4559	23.0001	-195.22	-63.4099	23.9809	-210.261	-108.445	61.4197	-202.603	-95.1196	31.2963	-187.255	-68.306	30.6309	-221.853	-79.4729	112.82	-211.869	-60.4427	137.958	-239.174	-45.6512	118.225	
153	1.275	-220.833	-14.6552	87.2207	-210.4	-19.721	49.0815	-204.279	-40.8938	21.5235	-196.723	-63.5263	9.39897	-274.075	-66.5432	61.6846	-297.06	-75.719	38.9106	-308.923	-91.0319	19.0027	-257.493	-91.4155	48.0209	-240.721	-94.4528	16.4185	-210.87	-68.7029	10.9388	-230.53	-103.802	53.8159	-214.193	-96.2311	22.6244	-194.977	-69.4112	23.8734	-213.01	-106.885	63.2045	-197.224	-98.8767	33.0398	-182.602	-73.4774	33.0313	-224.303	-82.7453	110.897	-211.046	-61.456	140.162	-238.841	-43.6684	118.403	
154	1.28333	-216.368	-15.0018	85.9623	-204.066	-22.5707	46.6326	-197.098	-45.3377	17.4157	-191.184	-71.0774	14.9191	-276.266	-62.8167	55.6016	-290.808	-75.4437	36.8703	-304.049	-86.5533	17.7816	-252.812	-92.4819	49.6522	-238.339	-94.6945	15.5346	-203.386	-72.154	11.6694	-232.787	-100.487	53.8858	-209.947	-99.7618	25.4642	-187.928	-74.0555	27.4659	-211.679	-110.283	67.2564	-198.43	-101.498	35.4237	-179.098	-80.4805	35.8488	-226.891	-77.9409	112.47	-212.507	-59.7374	140.527	-239.214	-41.2014	112.422	
155	1.29167	-211.431	-12.5933	86.8199	-198.173	-28.446	51.1121	-189.322	-47.6145	21.8855	-185.726	-77.2303	13.6925	-269.699	-58.4992	54.2512	-288.769	-70.0427	33.2506	-302.498	-84.018	14.3114	-251.471	-90.4783	48.8354	-231.234	-94.5542	14.1911	-197.98	-79.5051	12.6443	-231.48	-101.561	53.4056	-209.687	-104.909	28.1819	-184.298	-77.6895	29.4816	-212.625	-110.263	65.586	-193.413	-106.547	40.062	-173.874	-83.7868	37.3339	-228.931	-76.2724	113.049	-216.92	-56.8204	141.94	-237.264	-40.597	115.613	
156	1.3	-208.892	-14.0125	84.1559	-193.775	-27.8004	52.7741	-184.108	-49.839	22.5449	-177.678	-76.2457	14.1549	-266.207	-64.4652	52.4618	-281.809	-73.8367	33.8411	-296.248	-85.8872	14.5153	-247.624	-93.6661	47.3689	-228.153	-99.5916	17.2199	-190.779	-83.1453	15.2747	-227.089	-107.264	54.4159	-207.15	-102.815	28.7198	-179.431	-80.1818	33.1183	-211.417	-107.941	71.8595	-193.673	-107.853	44.0346	-167.955	-87.7825	41.4397	-227.157	-76.7841	112.497	-217.571	-56.0446	139.274	-236.44	-41.5527	111.022	
157	1.30833	-206.489	-9.92259	85.4996	-188.57	-24.9842	54.9149	-179.231	-49.8084	24.9529	-174.835	-78.0373	21.0827	-263.569	-60.0953	52.6245	-277.473	-73.2713	34.2458	-294.423	-87.5305	14.3203	-244.093	-92.371	51.9974	-224.884	-99.5812	17.5549	-185.918	-83.2602	17.9937	-223.347	-107.129	58.0559	-203.894	-105.04	32.4223	-175.445	-81.4134	36.4542	-208.668	-111.19	72.4938	-189.969	-108.561	46.3169	-169.29	-83.9209	46.2504	-225.823	-78.5353	114.323	-216.489	-57.2427	141.73	-235.576	-35.1633	111.276	
158	1.31667	-205.275	-13.3579	85.8136	-187.443	-26.8193	52.25	-176.79	-49.3832	30.8121	-171.032	-76.0639	22.0652	-262.232	-63.3811	53.2958	-277.092	-75.8297	34.4658	-291.079	-90.9106	18.0513	-243.716	-92.3086	47.2429	-224.628	-101.13	20.5759	-186.515	-86.6547	19.5206	-222.607	-107.623	55.9068	-201.943	-105.274	33.2528	-174.085	-85.3215	36.6065	-206.949	-111.958	73.6324	-185.507	-110.969	50.5479	-163.621	-84.2268	51.733	-224.157	-73.6604	116.658	-216.869	-55.9927	143.751	-236.208	-35.5627	111.13	
159	1.325	-203.543	-9.32934	86.7556	-186.474	-26.4964	51.7847	-176.354	-51.6854	28.1843	-170.433	-78.2238	22.9332	-259.586	-58.1249	52.9249	-278.17	-76.0768	33.118	-288.024	-92.0065	20.063	-241.771	-90.9516	51.807	-218.917	-101.681	21.8459	-183.916	-82.9593	21.6334	-221.187	-105.217	59.6703	-200.64	-103.573	33.8083	-173.352	-81.0936	38.6707	-207.819	-108.031	74.4522	-185.973	-105.497	50.7396	-165.255	-83.2036	50.4316	-226.422	-72.8477	117.983	-219.522	-54.6123	142.852	-235.54	-36.6587	111.053	
160	1.33333	-202.903	-8.45185	88.5494	-185.943	-23.8581	54.7518	-173.972	-48.6829	28.649	-170.291	-79.5122	22.5504	-260.282	-61.1855	53.7796	-275.264	-73.5561	35.7978	-291.136	-91.5075	19.042	-241.801	-88.3046	47.3273	-217.777	-97.2761	21.222	-180.314	-79.0548	25.5475	-222.766	-100.692	60.3569	-194.927	-104.216	35.7743	-171.969	-82.0331	39.9032	-206.794	-107.259	76.9343	-180.891	-104.125	50.6675	-163.355	-77.1268	54.9237	-230.201	-69.7033	112.603	-220.217	-48.3529	140.166	-236.849	-30.083	111.032	
161	1.34167	-202.891	-6.33928	87.4962	-183.112	-20.5751	52.3318	-173.486	-48.4964	30.1652	-169.685	-76.3605	22.6841	-259.7	-53.6154	51.4217	-274.587	-67.6922	34.7318	-289.977	-89.5284	18.6203	-240.904	-83.7848	50.2398	-217.193	-96.1199	22.6778	-180.846	-79.0742	26.1095	-223.1	-100.512	57.8194	-200.035	-99.6252	35.6778	-170.087	-78.0507	42.5021	-209.472	-103.813	77.7114	-187.291	-102.129	52.2102	-163.172	-80.8372	57.5239	-230.433	-67.8514	112.473	-221.296	-50.5676	140.488	-236.325	-31.2103	110.138	
162	1.35	-201.954	-4.33157	86.6605	-182.223	-19.6078	52.9036	-170.109	-43.1717	30.1719	-168.798	-71.0546	24.8269	-260.535	-47.3701	50.0345	-277.011	-67.0274	31.8534	-291.522	-82.957	15.8152	-242.949	-79.9645	45.2297	-216.505	-88.4429	18.0478	-181.764	-74.1025	24.2266	-224.809	-93.9141	53.2192	-200.346	-97.5124	36.7423	-172.101	-77.5881	42.0815	-213.254	-101.956	73.6657	-186.205	-101.78	52.7599	-163.544	-75.5283	60.436	-232.428	-62.2976	113.213	-224.724	-45.0145	138.681	-236.479	-20.5842	108.337	
163	1.35833	-197.939	-0.467391	85.0965	-178.37	-15.8981	57.1095	-169.243	-44.5406	29.2015	-167.15	-69.5533	23.941	-258.195	-40.2165	46.829	-275.458	-56.2527	28.1313	-288.549	-69.8072	11.9391	-243.94	-70.569	42.0125	-220.272	-85.5568	20.0236	-183.259	-72.9842	23.5333	-228.68	-87.5462	55.4763	-205.165	-93.0314	34.6384	-173.686	-72.989	41.7075	-217.466	-94.115	72.7673	-191.578	-96.7738	51.5676	-168.878	-78.3202	60.4626	-236.661	-56.529	112.699	-226.536	-36.3677	138.16	-233.758	-14.2113	107.414	
164	1.36667	-191.33	0.570921	86.8279	-171.374	-15.9358	59.3807	-165.8	-43.6597	34.9043	-166.114	-68.8269	23.8312	-254.052	-27.3453	40.4561	-269.681	-37.6523	20.4737	-281.861	-51.5276	3.34069	-243.243	-57.732	39.2851	-218.459	-77.5973	16.4178	-179.803	-72.0315	26.8602	-230.468	-79.3081	50.9587	-205.032	-90.8637	34.3234	-175.253	-74.9267	41.4408	-222.027	-89.7582	72.1079	-194.113	-91.1342	50.1107	-169.752	-72.4263	61.5922	-236.643	-48.998	108.949	-227.748	-33.4328	139.438	-232.44	-9.13499	103.131	
165	1.375	-181.204	2.82186	87.7534	-164.819	-18.4884	62.7365	-160.104	-45.5624	35.9628	-166.414	-70.328	27.32	-241.207	-11.7283	38.6881	-258.872	-22.6291	13.7758	-272.173	-31.8907	-5.92934	-239.648	-49.3985	35.9106	-215.054	-70.3105	13.6977	-178.811	-69.0365	24.8643	-231.057	-66.9479	45.0193	-204.859	-82.4506	30.8947	-174.964	-74.8359	42.9147	-226.967	-79.4516	64.8542	-200.055	-92.3756	51.505	-175.626	-76.0408	64.2148	-240.234	-38.9112	106.15	-230.652	-23.8778	132.839	-226.808	-2.61902	103.667	
166	1.38333	-169.075	1.94308	91.1525	-153.629	-21.364	65.039	-152.343	-47.2188	36.6683	-167.494	-70.368	30.9364	-225.182	0.375259	35.3338	-240.022	-2.75649	7.31958	-252.192	-4.06755	-18.5474	-233.454	-35.2471	28.8676	-211.925	-60.124	11.1122	-177.69	-69.7775	28.5238	-233.758	-58.3563	44.6349	-209.368	-74.5423	29.5718	-179.514	-77.7817	47.1333	-231.658	-72.6384	61.1938	-202.785	-82.8177	49.4828	-178.842	-78.3539	67.5916	-238.821	-27.0446	103.007	-226.543	-14.1155	131.525	-213.795	7.75538	99.2119	
